# xmcd
#
# Track frame offsets: 
#        150
#        10784
#        24965
#        32366
#        53221
#        82296
#        87987
#        105739
#        111026
#        121908
#        136280
#        144025
#        153481
#        164772
#        176378
#
# Disc length: 2402 seconds
#
# Revision: 0
# Processed by: cddbd v1.5.2PL0 Copyright (c) Steve Scherf et al.
# Submitted via: ExactAudioCopyFreeDBPlugin 1.0
#
DISCID=b609600f
DTITLE=Los Dos - In The Jungle
DYEAR=2014
DGENRE=Blues
TTITLE0=Monkey Brain
TTITLE1=The Blues Is In My Bones
TTITLE2=Six Feet Under
TTITLE3=Orang Utan Blues
TTITLE4=Marie Laveaux
TTITLE5=One String Boogie
TTITLE6=Take Me To The Jungle
TTITLE7=Right Through My Chest
TTITLE8=Hole In The Wall
TTITLE9=Down To The River
TTITLE10=Yakuniku Boogie
TTITLE11=Grumpy Pumpy
TTITLE12=Gunslinger
TTITLE13=Dangerous
TTITLE14=Lullaby
EXTD=
EXTT0=
EXTT1=
EXTT2=
EXTT3=
EXTT4=
EXTT5=
EXTT6=
EXTT7=
EXTT8=
EXTT9=
EXTT10=
EXTT11=
EXTT12=
EXTT13=
EXTT14=
PLAYORDER=
